# xmcd
#
# Track frame offsets:
#	150
#	12260
#	26816
#	41046
#	55663
#	76318
#	98055
#	120545
#	136853
#	150475
#	166147
#	176904
#	194395
#	207197
#	220348
#	235957
#
# Disc length: 3317 seconds
#
# Revision: 0
# Processed by: cddbd v1.5.1PL2 Copyright (c) Steve Scherf et al.
# Submitted via: EasyCDDAExtractor 8.2.3.1
#
DISCID=d20cf310
DTITLE=Wolfe Bros. - 2001 - An Old-Time Odyssey
DYEAR=2001
DGENRE=Old-Time
TTITLE0=Uncle Henry's Gone
TTITLE1=Richmond Am A Hard Road To Travel
TTITLE2=Rainbow Sign
TTITLE3=Benny's Dream
TTITLE4=Old Paint
TTITLE5=On Christmas Eve
TTITLE6=Green Wood
TTITLE7=Johnson Boys
TTITLE8=Waiting There For Me
TTITLE9=Mole In The Ground
TTITLE10=The Grand Picnic
TTITLE11=The Wilderness Road
TTITLE12=Uncle Ned
TTITLE13=Johnny Bolee
TTITLE14=Shoot the Buffalo
TTITLE15=Up On Sugar Hill
EXTD=
EXTT0=
EXTT1=
EXTT2=
EXTT3=
EXTT4=
EXTT5=
EXTT6=
EXTT7=
EXTT8=
EXTT9=
EXTT10=
EXTT11=
EXTT12=
EXTT13=
EXTT14=
EXTT15=
PLAYORDER=
